<?xml version="1.0" standalone="no"?>
<!DOCTYPE svg PUBLIC "-//W3C//DTD SVG 20010904//EN"
 "http://www.w3.org/TR/2001/REC-SVG-20010904/DTD/svg10.dtd">
<svg version="1.0" xmlns="http://www.w3.org/2000/svg"
 width="600.000000pt" height="600.000000pt" viewBox="0 0 600.000000 600.000000"
 preserveAspectRatio="xMidYMid meet">
<metadata>
Created by potrace 1.14, written by Peter Selinger 2001-2017
</metadata>
<g transform="translate(0.000000,600.000000) scale(0.100000,-0.100000)"
fill="#000000" stroke="none">
<path d="M828 4833 c-10 -3 -18 -11 -18 -19 0 -8 -4 -12 -10 -9 -5 3 -10 -1
-10 -9 0 -9 -3 -15 -7 -15 -25 4 -41 -3 -39 -18 0 -10 -5 -17 -12 -15 -6 1
-11 -4 -10 -10 2 -7 -4 -11 -12 -10 -8 2 -12 1 -8 -3 8 -8 -24 -43 -34 -38 -4
2 -10 -8 -14 -22 -3 -14 -11 -25 -18 -25 -6 0 -12 -9 -13 -20 -1 -11 2 -18 8
-15 14 9 11 -2 -7 -19 -14 -15 -14 -16 2 -16 16 0 16 -1 -2 -14 -10 -8 -16
-18 -11 -22 4 -4 0 -16 -10 -26 -10 -11 -12 -18 -4 -18 8 0 9 -5 2 -17 -5 -10
-10 -34 -12 -53 -2 -19 -5 -39 -8 -45 -5 -10 -7 -18 -12 -72 -2 -18 -7 -33
-12 -33 -5 0 -4 -6 2 -14 9 -11 9 -16 0 -22 -8 -5 -9 -3 -4 6 5 9 4 11 -3 6
-9 -5 -9 -13 -2 -27 8 -14 7 -19 -2 -19 -9 0 -9 -3 2 -10 12 -8 12 -10 1 -10
-9 0 -11 -7 -8 -22 4 -12 1 -28 -5 -35 -6 -7 -8 -22 -5 -33 3 -11 2 -18 -3
-15 -4 3 -11 -2 -14 -11 -4 -10 -2 -13 7 -8 9 6 9 4 -1 -8 -10 -13 -10 -17 0
-21 11 -4 11 -6 0 -6 -10 -1 -10 -6 -1 -23 11 -20 10 -21 -3 -11 -12 10 -15
10 -15 -2 0 -8 3 -15 7 -15 4 0 7 -7 7 -15 0 -8 -4 -12 -9 -9 -4 3 -8 3 -8 0
0 -2 -3 -12 -7 -22 -5 -13 -3 -15 8 -9 11 7 12 6 2 -7 -7 -8 -10 -18 -6 -21 3
-4 1 -7 -6 -7 -8 0 -9 -5 -2 -17 7 -13 5 -23 -7 -37 -13 -15 -13 -17 -2 -11
10 6 9 2 -3 -12 -14 -16 -15 -23 -6 -29 8 -5 10 -3 4 6 -5 9 -4 11 4 6 8 -5 9
-12 2 -20 -5 -6 -12 -38 -15 -69 -2 -32 -10 -65 -18 -74 -9 -12 -9 -15 0 -9
17 10 15 -5 -5 -33 -9 -14 -11 -21 -5 -17 16 10 15 -6 0 -23 -10 -11 -10 -13
0 -7 6 4 12 3 12 -1 0 -5 -6 -15 -12 -22 -11 -11 -10 -12 2 -6 13 8 13 7 1 -8
-8 -10 -11 -20 -8 -24 4 -3 1 -13 -6 -21 -9 -13 -9 -14 1 -8 6 4 12 2 12 -3 0
-6 -4 -11 -9 -11 -5 0 -7 -9 -4 -20 3 -13 0 -20 -8 -20 -12 0 -12 -2 0 -9 8
-5 10 -14 5 -22 -13 -22 -14 -62 -1 -78 10 -12 9 -14 -3 -9 -13 5 -16 -3 -14
-43 0 -27 -3 -49 -7 -49 -4 0 -6 -20 -5 -44 1 -28 -2 -43 -8 -39 -5 4 -7 -1
-3 -10 3 -9 2 -19 -4 -23 -6 -4 -5 -12 3 -22 11 -14 10 -15 -6 -9 -14 6 -16 4
-9 -5 13 -17 7 -69 -9 -79 -10 -7 -10 -9 0 -9 14 0 12 -21 -3 -32 -6 -5 -5
-11 4 -17 9 -6 10 -11 2 -15 -6 -4 -9 -12 -6 -17 4 -5 0 -9 -7 -9 -8 0 -9 -3
-3 -8 15 -11 19 -46 4 -36 -8 5 -10 3 -3 -7 12 -19 11 -72 -1 -81 -6 -5 -4 -8
5 -8 13 0 13 -1 0 -10 -9 -6 -11 -10 -3 -10 7 0 10 -6 8 -12 -3 -7 -6 -59 -9
-115 -2 -55 -7 -106 -10 -112 -4 -6 -2 -11 4 -11 6 0 8 -4 5 -10 -13 -21 -14
-54 -3 -61 9 -6 7 -14 -7 -30 -11 -12 -15 -19 -9 -16 7 4 14 -2 17 -13 3 -12
1 -18 -5 -14 -7 4 -7 0 -1 -12 5 -11 9 -26 8 -34 0 -8 4 -18 10 -22 6 -5 5 -8
-3 -8 -9 0 -10 -5 -3 -18 6 -10 6 -24 1 -32 -5 -8 -6 -19 -2 -24 12 -19 11
-66 -1 -66 -8 0 -9 -3 -1 -8 12 -8 13 -102 0 -102 -4 0 -6 -7 -2 -15 3 -8 1
-26 -4 -40 -7 -17 -6 -25 1 -25 8 0 8 -5 -1 -15 -6 -8 -9 -19 -6 -24 4 -5 1
-13 -4 -16 -7 -5 -5 -12 7 -22 10 -8 12 -12 6 -8 -7 3 -13 2 -13 -4 0 -5 6
-12 13 -14 8 -4 8 -6 -2 -6 -11 -1 -10 -5 5 -17 10 -8 13 -13 7 -9 -9 4 -11 1
-7 -9 3 -9 10 -16 16 -16 5 0 6 -5 3 -10 -3 -6 1 -10 9 -10 9 0 16 -5 16 -10
0 -7 6 -7 19 -1 10 6 21 7 25 4 3 -3 6 -1 6 6 0 7 5 9 10 6 6 -3 10 1 10 9 0
9 3 15 7 15 20 -3 26 2 13 11 -13 8 -13 10 2 10 11 0 15 5 12 14 -3 7 3 22 13
31 10 10 17 20 16 22 -9 10 0 23 15 23 13 0 14 2 4 9 -11 7 -11 9 2 14 9 4 15
12 14 19 -2 7 3 12 11 10 12 -3 12 -1 0 14 -8 10 -9 15 -3 11 7 -4 15 0 18 9
4 9 2 13 -5 8 -6 -3 -3 5 6 20 10 14 15 35 12 46 -3 10 -1 20 3 22 5 2 10 30
13 64 2 33 7 66 11 72 4 7 2 12 -4 12 -6 0 -8 5 -5 11 11 17 12 69 2 69 -5 0
-4 6 2 14 9 11 9 15 -1 18 -10 4 -10 8 1 21 11 14 11 17 1 17 -8 0 -10 3 -7 7
4 3 1 13 -6 21 -9 13 -9 14 1 8 15 -9 15 -1 2 25 -7 12 -7 19 -1 19 6 0 8 7 5
15 -4 8 -11 12 -18 8 -6 -3 -6 -1 1 8 16 16 17 33 2 23 -8 -5 -8 -1 0 14 7 14
8 23 1 27 -5 3 -10 11 -10 16 0 6 4 8 8 5 5 -3 9 1 9 9 0 8 -4 15 -9 15 -5 0
-4 8 1 18 5 10 6 24 1 32 -5 8 -5 21 1 31 12 24 11 32 -3 23 -9 -5 -9 -2 1 9
11 14 11 17 0 17 -9 0 -10 3 -3 8 14 9 15 83 1 100 -7 9 -6 11 8 6 15 -6 16
-4 5 16 -8 15 -8 20 -1 16 6 -4 11 0 11 10 0 10 3 15 6 12 3 -4 17 0 31 7 15
8 30 12 35 9 4 -3 8 -1 8 5 0 6 7 7 17 4 11 -5 14 -3 8 6 -6 10 -3 11 14 2 11
-7 21 -8 21 -3 0 11 31 15 115 14 80 0 115 -4 115 -12 0 -4 6 -7 13 -7 21 0
100 -40 125 -63 11 -11 23 -20 26 -20 6 0 72 -59 143 -127 30 -29 59 -53 64
-53 6 0 7 -4 4 -10 -3 -5 -2 -10 3 -10 6 0 37 -27 70 -59 33 -33 62 -57 66
-54 3 4 6 -1 6 -10 0 -10 3 -17 8 -17 4 0 21 -12 37 -28 17 -15 57 -47 90 -72
33 -25 67 -52 75 -60 8 -9 31 -27 50 -40 19 -14 42 -32 52 -40 28 -25 41 -34
82 -55 21 -11 40 -26 43 -32 3 -7 8 -11 12 -9 3 2 22 -6 42 -17 144 -86 206
-118 280 -144 46 -16 89 -29 94 -29 22 2 86 63 94 91 25 79 23 89 -42 167 -97
116 -190 209 -204 204 -7 -3 -13 1 -13 8 0 17 -27 29 -43 19 -7 -3 -9 -3 -5 2
7 8 -15 29 -37 36 -5 1 -19 11 -29 21 -11 10 -24 18 -29 18 -4 0 -15 7 -24 15
-8 8 -19 12 -25 9 -7 -4 -8 -2 -4 4 5 8 0 12 -13 12 -12 0 -21 4 -21 8 0 11
-36 54 -44 53 -20 -3 -26 1 -26 15 0 8 -4 12 -10 9 -5 -3 -10 -1 -10 5 0 6 -4
8 -10 5 -6 -3 -7 1 -4 9 3 9 1 16 -6 16 -6 0 -18 7 -27 15 -8 8 -19 12 -25 9
-7 -4 -8 -2 -4 4 4 6 -4 16 -16 23 -13 7 -29 21 -37 31 -7 11 -19 17 -27 14
-9 -3 -11 0 -7 11 4 11 2 14 -5 9 -7 -4 -12 -1 -12 8 0 9 -5 16 -11 16 -5 0
-7 -5 -3 -12 4 -7 3 -8 -5 -4 -9 6 -9 11 1 24 11 13 10 15 -4 9 -12 -4 -18 -2
-18 8 0 7 -5 17 -12 21 -7 4 -8 3 -4 -4 5 -8 2 -10 -8 -6 -9 3 -13 10 -10 15
3 5 0 9 -6 9 -6 0 -8 5 -4 12 4 7 3 8 -4 4 -6 -3 -16 2 -22 13 -8 16 -8 19 2
16 7 -3 38 -7 68 -9 30 -3 55 -5 55 -6 0 -1 23 -4 50 -5 28 -2 62 -6 77 -8 15
-3 31 -1 34 5 5 7 12 4 21 -7 8 -12 13 -14 13 -6 0 10 3 11 13 2 8 -6 17 -8
21 -4 10 10 36 13 36 4 0 -5 50 -8 110 -7 67 1 110 -3 110 -9 0 -5 4 -5 8 2 4
7 20 10 40 7 19 -3 32 -1 32 5 0 6 5 11 11 11 5 0 7 -4 4 -10 -9 -14 8 -12 24
3 11 10 13 10 7 0 -9 -16 6 -17 21 -2 7 7 13 7 17 0 4 -5 13 -8 21 -5 8 4 12
10 9 15 -8 14 3 10 20 -7 9 -8 16 -11 16 -6 0 5 27 9 60 8 34 0 60 3 60 9 0 6
5 3 10 -5 8 -12 10 -12 11 5 l0 20 9 -20 c5 -11 9 -15 9 -8 1 6 10 9 23 5 16
-4 19 -2 13 9 -5 8 -1 7 11 -3 19 -16 22 -16 44 -1 13 9 20 11 16 5 -10 -16
16 -15 33 1 11 10 13 9 7 -3 -4 -8 0 -6 8 4 12 15 16 16 16 5 0 -8 9 -15 20
-15 11 0 19 5 16 11 -2 7 12 10 41 8 25 -2 50 1 57 6 9 8 12 -3 11 -42 0 -29
-4 -58 -9 -66 -6 -9 -5 -12 1 -8 6 4 13 0 17 -8 3 -8 1 -17 -5 -21 -6 -3 -8
-12 -5 -20 3 -8 0 -14 -6 -14 -7 0 -7 -4 0 -12 15 -19 15 -30 0 -39 -11 -7
-11 -9 1 -9 10 0 11 -3 2 -14 -8 -10 -9 -16 -1 -21 6 -3 7 -11 4 -17 -11 -18
-12 -78 -1 -71 6 4 7 1 2 -8 -10 -16 -13 -239 -4 -239 4 0 6 -18 4 -40 -1 -22
2 -40 7 -40 5 0 6 -4 3 -10 -3 -5 -2 -10 4 -10 6 0 8 -6 5 -14 -3 -8 -1 -17 5
-21 6 -3 11 -15 11 -26 0 -10 4 -19 8 -19 5 0 17 -7 28 -16 18 -14 18 -15 -6
-10 -14 3 -19 3 -12 0 6 -3 9 -10 6 -16 -4 -6 2 -5 15 1 11 7 21 16 21 21 0 6
5 10 10 10 7 0 7 -6 0 -19 -7 -14 -7 -22 0 -26 6 -4 10 -3 9 2 -4 21 2 32 20
38 13 4 18 13 17 30 -2 13 2 23 8 22 6 -1 11 10 10 25 -1 15 3 25 7 22 5 -3 9
0 9 6 0 6 4 9 9 5 16 -9 24 15 10 31 -11 13 -10 15 7 12 15 -2 18 2 17 20 -2
13 1 21 6 18 5 -3 12 1 15 10 9 23 8 26 -6 18 -9 -5 -9 -2 1 9 16 20 25 23 15
5 -4 -7 -3 -10 1 -5 13 11 15 88 3 81 -7 -5 -7 -1 0 11 7 13 5 28 -5 53 -8 18
-10 31 -5 28 10 -6 6 160 -4 176 -4 7 -2 8 4 4 7 -4 12 -1 12 9 0 9 -3 14 -7
12 -5 -3 -8 5 -8 18 0 13 3 21 8 18 4 -2 7 5 7 16 0 12 -6 21 -12 21 -9 0 -10
3 -2 8 6 4 10 16 8 27 -2 10 2 25 8 32 7 9 7 13 0 13 -11 0 -11 18 1 37 4 6 3
13 -2 15 -5 1 -3 12 5 22 10 14 14 16 14 5 0 -12 2 -12 9 0 5 7 21 15 35 16
14 2 24 -1 20 -6 -3 -5 2 -9 11 -9 10 0 13 5 9 13 -4 6 -4 9 1 5 4 -4 14 -3
22 4 11 8 12 7 7 -6 -3 -9 -1 -16 5 -16 6 0 11 5 11 10 0 6 11 10 24 10 13 0
26 4 28 10 2 5 4 -17 5 -50 1 -40 -3 -58 -10 -53 -6 4 -7 1 -1 -8 12 -20 12
-83 -1 -91 -7 -5 -6 -8 1 -8 7 0 10 -12 7 -27 -7 -51 -8 -103 -2 -103 3 0 6
-7 6 -15 0 -8 -4 -15 -8 -15 -3 0 -6 -31 -5 -70 0 -38 5 -70 9 -70 5 0 5 -6 1
-12 -11 -18 -12 -48 -2 -48 4 0 8 -13 8 -30 0 -16 5 -30 12 -30 6 0 8 -3 5 -6
-3 -4 -2 -15 3 -25 7 -12 6 -19 -3 -22 -9 -4 -9 -6 1 -6 7 -1 11 -5 7 -10 -3
-6 8 -8 25 -6 17 2 28 0 25 -4 -2 -5 3 -15 13 -22 15 -13 16 -12 3 4 -7 9 -10
17 -6 17 4 0 2 7 -5 15 -11 13 -10 14 4 9 9 -3 16 -10 16 -15 0 -5 5 -9 12 -9
6 0 4 8 -6 19 -11 12 -13 21 -7 25 5 4 15 -2 21 -11 11 -17 11 -17 6 0 -3 9
-1 17 4 17 6 0 10 5 10 11 0 5 -5 7 -12 3 -7 -4 -8 -3 -4 5 6 9 11 9 21 1 11
-10 13 -8 10 9 -2 12 -7 26 -11 33 -5 8 -2 9 9 5 9 -3 16 -3 16 1 -3 20 3 23
18 11 15 -12 14 -11 -1 13 -18 27 -18 27 6 23 23 -4 23 -4 3 12 -16 12 -16 14
-3 10 10 -3 20 -2 23 3 4 6 1 10 -4 10 -6 0 -11 5 -11 11 0 5 5 7 10 4 6 -3
10 -1 10 5 0 6 5 8 10 5 6 -3 10 -2 10 4 0 5 -6 12 -12 14 -10 4 -10 6 0 6 7
1 10 6 7 11 -3 6 -1 10 4 10 6 0 11 5 11 11 0 5 -6 7 -12 4 -7 -4 -6 -1 2 7
20 17 27 53 8 42 -9 -6 -9 -3 1 10 13 15 13 19 0 27 -11 7 -11 9 0 9 11 0 11
3 0 17 -12 14 -12 16 0 8 10 -6 12 -4 6 6 -12 18 -14 49 -3 49 4 0 8 5 8 11 0
5 -4 7 -10 4 -5 -3 -8 0 -5 7 2 7 7 32 9 56 4 31 2 41 -7 35 -7 -4 -6 0 2 10
10 13 11 20 2 30 -8 10 -7 17 2 26 9 9 9 14 -2 20 -11 7 -11 9 0 14 12 4 11 7
-1 16 -10 7 -11 11 -2 11 6 0 12 9 12 21 0 12 5 19 13 16 6 -2 18 3 25 12 8 9
11 11 8 4 -11 -21 19 -21 43 1 13 11 21 15 17 9 -4 -7 -2 -13 3 -13 6 0 11 5
11 12 0 9 3 9 12 0 8 -8 16 -8 32 0 11 6 35 12 53 13 30 1 31 0 27 -29 -3 -17
-5 -41 -5 -54 1 -16 -3 -21 -12 -16 -9 6 -8 3 1 -8 10 -13 11 -22 3 -37 -8
-14 -8 -22 -1 -26 8 -5 8 -11 0 -20 -8 -10 -8 -15 0 -20 8 -5 8 -11 1 -19 -6
-7 -8 -16 -4 -20 11 -10 14 -48 4 -42 -10 6 -9 -12 0 -29 3 -5 7 -34 8 -64 1
-30 4 -58 7 -63 3 -4 0 -8 -7 -8 -7 0 -8 -4 -2 -12 11 -15 11 -68 0 -86 -5 -7
-2 -14 7 -18 9 -3 13 -11 9 -17 -9 -16 -10 -56 -1 -51 7 5 11 -19 11 -68 0
-10 4 -18 10 -18 7 0 7 -4 -1 -12 -9 -9 -9 -15 0 -26 7 -8 13 -19 14 -26 9
-39 14 -56 28 -91 9 -21 14 -40 12 -42 -2 -2 9 -31 25 -64 16 -32 29 -66 29
-74 0 -8 5 -15 11 -15 5 0 8 -4 4 -9 -3 -5 2 -17 11 -25 8 -9 12 -16 8 -16 -3
0 -1 -6 5 -13 6 -8 9 -16 6 -19 -8 -7 72 -88 87 -88 6 0 3 7 -8 15 -18 14 -18
14 5 15 20 0 22 2 11 15 -11 13 -10 14 2 10 9 -4 18 1 22 11 5 14 9 14 23 3 9
-8 14 -9 10 -3 -3 6 -8 23 -11 38 -4 24 -2 26 16 20 14 -4 18 -3 14 5 -4 6 -9
22 -12 36 -3 20 -1 23 13 18 12 -5 15 -2 10 10 -4 11 -2 14 9 10 13 -5 13 -8
-2 -24 -10 -11 -14 -22 -11 -26 4 -3 7 -1 7 5 0 6 8 9 18 6 14 -5 15 -4 2 5
-13 9 -9 15 10 13 6 -1 9 19 12 75 1 17 6 31 11 30 5 -1 11 6 12 16 2 9 -1 17
-6 17 -5 0 -9 5 -9 11 0 5 4 8 8 5 5 -3 9 1 9 9 0 8 -2 13 -5 10 -2 -2 -10 1
-16 8 -16 16 -29 50 -16 42 5 -3 7 1 4 9 -3 8 -12 17 -20 20 -8 3 -11 12 -7
22 4 12 3 15 -5 10 -8 -5 -10 -2 -6 8 3 9 2 16 -4 16 -6 0 -8 10 -4 22 4 16 2
19 -8 13 -10 -6 -12 -4 -7 8 4 10 1 17 -6 17 -8 0 -6 4 3 10 13 8 12 10 -2 10
-16 0 -24 23 -19 53 0 4 -4 7 -10 7 -5 0 -9 8 -8 18 3 32 -1 43 -12 36 -8 -5
-9 -2 -1 12 8 14 6 21 -6 32 -10 7 -11 11 -4 7 17 -9 15 5 -5 27 -16 18 -16
18 0 12 14 -5 16 -2 10 12 -4 11 -14 25 -22 32 -14 10 -13 11 4 5 18 -6 18 -5
6 10 -8 11 -9 17 -3 17 6 0 9 7 6 15 -4 8 -9 13 -13 11 -4 -3 -7 4 -8 14 -1
11 3 23 9 26 6 4 5 10 -3 15 -11 7 -11 9 -1 9 10 0 10 5 1 21 -8 16 -8 20 1
14 9 -6 9 -2 1 14 -8 15 -9 21 -1 21 6 0 8 5 5 10 -4 6 -12 8 -18 4 -7 -3 -3
2 7 10 11 9 15 16 8 16 -6 0 -9 7 -6 15 3 8 2 20 -2 27 -12 19 -14 39 -3 32 5
-3 9 2 9 11 0 10 -5 13 -12 9 -10 -6 -10 -4 -3 7 12 17 13 39 1 58 -6 10 -5
12 2 7 7 -4 12 -2 12 3 0 6 -6 11 -12 11 -10 0 -9 3 1 9 7 5 11 13 8 17 -3 5
1 15 9 22 9 8 14 9 14 2 0 -7 6 -8 19 -1 10 6 35 9 54 8 20 -2 34 0 31 4 -2 4
0 10 6 14 5 3 10 2 10 -4 0 -6 7 -8 15 -5 8 4 12 11 8 18 -5 8 -3 8 8 0 8 -5
20 -9 27 -8 6 1 17 2 23 3 5 0 8 4 6 9 -3 4 16 8 41 8 52 1 74 6 82 16 3 4 18
9 34 12 16 3 32 9 35 13 3 4 15 9 26 11 37 5 46 8 63 23 9 8 19 15 22 15 32 4
117 60 233 154 95 76 206 208 190 224 -4 3 -1 6 5 6 6 0 16 16 22 35 6 19 15
35 19 35 4 0 13 16 21 35 7 19 18 31 24 28 6 -3 8 -3 4 2 -4 4 -1 22 7 40 7
19 11 36 7 39 -3 3 0 6 6 6 10 0 28 55 24 73 -1 4 1 7 6 7 14 0 7 85 -8 98
-13 10 -12 11 5 5 20 -7 20 -7 1 21 -11 18 -13 25 -5 21 8 -5 5 2 -6 15 -11
13 -14 20 -7 16 6 -4 12 -2 12 3 0 6 -4 11 -10 11 -5 0 -7 7 -4 15 4 8 -1 17
-10 21 -9 4 -21 16 -27 28 -10 20 -10 20 5 2 9 -11 16 -16 16 -10 0 5 -17 24
-37 42 -21 18 -33 31 -26 28 6 -4 15 -1 19 6 4 7 4 10 -1 6 -11 -11 -64 23
-71 45 -5 15 -8 16 -20 6 -12 -10 -15 -10 -12 2 2 8 -4 13 -14 13 -10 -1 -16
2 -13 6 7 11 -24 22 -37 13 -6 -3 -8 -2 -5 4 7 11 -56 33 -97 33 -14 0 -26 5
-26 11 0 5 -5 7 -12 3 -6 -4 -36 -8 -67 -10 -31 -1 -58 -4 -61 -5 -3 -1 -9 -1
-13 0 -4 1 -10 -6 -13 -14 -3 -8 -10 -13 -14 -10 -5 3 -11 1 -15 -5 -3 -5 -15
-10 -26 -10 -10 0 -19 -4 -19 -8 0 -5 -17 -18 -38 -29 -20 -12 -70 -52 -110
-90 -39 -38 -72 -67 -72 -64 0 2 -10 -9 -22 -25 -35 -44 -59 -73 -103 -120
-22 -23 -41 -47 -42 -53 -2 -6 -11 -20 -20 -30 -37 -40 -48 -56 -46 -63 2 -5
-1 -8 -7 -8 -5 0 -20 -22 -33 -50 -13 -27 -26 -47 -30 -44 -3 3 -8 -5 -12 -18
-4 -13 -13 -30 -20 -38 -8 -8 -14 -17 -13 -20 0 -20 -16 -60 -24 -60 -6 0 -8
-6 -5 -14 3 -8 -1 -17 -9 -20 -9 -3 -12 -10 -9 -16 3 -5 1 -10 -5 -10 -6 0 -8
-4 -5 -10 3 -5 0 -10 -7 -10 -10 0 -10 -2 1 -9 9 -6 10 -11 2 -15 -6 -4 -11
-16 -11 -27 0 -11 -4 -18 -9 -15 -5 4 -7 -3 -4 -15 4 -12 0 -25 -8 -30 -11 -7
-11 -9 -1 -9 7 0 10 -5 7 -10 -4 -6 -11 -8 -16 -4 -5 3 -8 0 -7 -8 2 -7 -7
-14 -20 -16 -14 -2 -20 -8 -15 -15 4 -8 1 -7 -9 1 -12 9 -18 10 -23 2 -5 -7
-11 -8 -19 -1 -7 6 -17 6 -26 1 -8 -5 -18 -6 -22 -4 -4 3 -8 2 -8 -3 0 -4 -24
-8 -54 -8 -36 0 -51 -3 -46 -10 6 -7 -5 -9 -31 -7 -26 3 -39 0 -39 -8 0 -10
-3 -10 -14 -1 -11 9 -15 9 -19 -1 -4 -10 -8 -10 -16 2 -8 11 -11 12 -11 2 0
-7 -4 -10 -10 -7 -5 3 -10 1 -10 -5 0 -8 -6 -7 -21 1 -12 6 -19 7 -15 1 3 -5
-1 -13 -10 -16 -24 -9 -31 -7 -14 4 13 9 13 10 -1 10 -8 0 -21 -6 -28 -12 -11
-10 -12 -10 -7 -1 5 10 1 11 -16 4 -13 -4 -23 -13 -23 -19 0 -6 -3 -14 -7 -18
-4 -3 -6 2 -4 13 4 16 -1 20 -25 19 -16 -1 -29 -4 -29 -7 0 -3 -10 -5 -22 -4
-13 1 -26 -3 -30 -9 -5 -7 -8 -6 -8 3 0 11 -3 11 -17 0 -9 -8 -14 -9 -11 -4 4
6 -2 11 -12 11 -14 0 -16 -3 -8 -13 8 -11 7 -12 -8 -6 -10 3 -22 11 -26 17 -5
8 -8 7 -8 -1 0 -7 -11 -1 -25 13 -27 27 -33 40 -12 28 6 -4 9 -3 4 1 -12 14
-57 12 -57 -2 0 -7 -5 -13 -10 -13 -6 0 -9 -3 -8 -7 2 -5 -1 -9 -6 -10 -5 -1
-13 -7 -17 -15 -7 -10 -9 -10 -9 0 0 7 -5 10 -10 7 -6 -4 -7 -11 -4 -17 5 -8
1 -9 -10 -5 -14 5 -17 3 -13 -7 5 -12 1 -13 -18 -6 -24 9 -29 6 -26 -14 1 -5
-4 -5 -11 1 -16 14 -68 14 -68 1 0 -6 -8 -4 -17 3 -15 12 -16 12 -9 -5 7 -19
6 -19 -13 -2 -14 13 -21 14 -27 5 -5 -8 -3 -10 6 -4 9 6 11 4 6 -4 -6 -9 -12
-9 -24 3 -14 12 -20 12 -34 2 -10 -7 -14 -17 -10 -21 4 -4 -5 0 -20 9 -20 13
-27 14 -31 4 -3 -7 -6 -8 -6 -3 -1 6 -24 9 -56 7 -38 -3 -53 -7 -48 -15 3 -7
-3 -4 -14 6 -13 11 -22 14 -24 8 -2 -6 -14 -13 -27 -16 -12 -2 -20 0 -17 5 6
10 -47 6 -64 -4 -5 -4 -12 -2 -16 4 -4 6 -12 7 -18 3 -19 -11 -58 -13 -51 -1
4 7 0 7 -12 1 -23 -11 -74 -10 -93 2 -10 5 -12 4 -7 -3 4 -7 3 -12 -3 -12 -5
0 -13 5 -16 10 -4 7 -13 6 -27 -1 -11 -6 -23 -7 -27 -3 -9 14 -63 15 -55 2 5
-7 2 -8 -7 -2 -19 12 -41 11 -58 -1 -11 -7 -13 -7 -7 3 6 9 -1 13 -26 13 -76
-1 -108 2 -108 9 0 4 -12 6 -27 4 -15 -1 -31 3 -35 9 -5 8 -8 5 -8 -8 0 -11
-4 -15 -8 -10 -10 15 -92 35 -92 22 0 -5 -7 -4 -15 3 -12 10 -18 10 -32 -1
-12 -10 -15 -11 -9 -1 6 9 -1 13 -26 12 -55 -1 -124 7 -137 14 -6 4 -11 2 -11
-5 0 -7 -4 -8 -12 -2 -7 5 -20 9 -28 8 -8 0 -18 4 -22 10 -5 7 -8 6 -8 -1 0
-6 -10 -10 -22 -8 -13 1 -23 3 -23 4 0 4 -75 12 -132 13 -33 1 -59 5 -57 9 2
3 -13 5 -33 3 -21 -1 -43 1 -50 7 -7 6 -17 1 -28 -14 -10 -13 -15 -16 -12 -6
9 25 -3 29 -32 10 -23 -15 -25 -15 -13 0 11 14 9 16 -23 14 -19 -1 -35 2 -35
5 0 9 112 232 119 239 3 3 7 12 9 20 2 8 12 34 23 57 12 24 22 49 24 55 9 38
18 58 26 58 5 0 8 3 7 8 -4 18 15 61 25 55 5 -3 7 -1 4 4 -6 10 2 34 58 158
12 28 28 67 35 87 8 20 17 35 22 32 4 -3 5 3 1 12 -5 13 -3 15 7 9 8 -5 11 -4
7 2 -3 5 2 27 13 49 31 66 72 163 71 171 0 1 6 15 14 30 8 14 12 30 9 35 -3 4
0 8 5 8 6 0 11 9 11 19 0 11 4 22 9 26 6 3 8 14 6 25 -2 11 0 20 6 20 5 0 7
11 5 25 -3 18 0 25 12 26 14 0 13 2 -3 9 -11 5 -14 9 -7 9 7 1 11 5 8 10 -3 5
2 12 11 15 12 5 14 9 5 18 -9 9 -8 16 5 30 11 12 12 18 4 18 -18 0 -43 28 -36
40 3 5 1 10 -4 10 -6 0 -11 -4 -11 -10 0 -5 -6 -7 -13 -4 -8 3 -18 -6 -25 -21
-10 -23 -29 -31 -57 -25 -5 1 -7 -2 -3 -6 4 -4 2 -14 -5 -22 -10 -13 -9 -15 3
-9 8 4 7 2 -3 -5 -30 -21 -89 -78 -81 -78 4 0 1 -6 -8 -12 -16 -14 -32 -62
-17 -52 13 8 11 -10 -3 -25 -11 -10 -9 -11 7 -6 17 6 16 3 -5 -15 -14 -12 -18
-19 -10 -15 8 4 4 -3 -9 -14 -13 -12 -18 -21 -11 -21 7 0 3 -12 -10 -30 -12
-16 -18 -34 -15 -40 3 -5 1 -10 -5 -10 -6 0 -8 -4 -5 -10 3 -5 1 -10 -4 -10
-6 0 -11 -9 -11 -19 0 -11 -5 -23 -10 -26 -6 -4 -8 -11 -5 -16 4 -5 2 -9 -3
-9 -5 0 -9 -6 -9 -12 -1 -23 -8 -42 -21 -56 -7 -8 -10 -17 -7 -22 3 -4 -2 -10
-10 -14 -8 -3 -12 -11 -9 -19 3 -8 -2 -20 -11 -27 -8 -7 -15 -21 -15 -31 0 -9
-6 -24 -13 -31 -7 -7 -15 -17 -16 -23 -2 -5 -8 -21 -14 -35 -12 -28 -14 -36
-16 -51 0 -5 -7 -7 -13 -3 -9 5 -9 2 1 -9 12 -15 11 -17 -5 -17 -16 0 -17 -2
-4 -10 8 -5 10 -10 4 -10 -11 0 -20 -20 -29 -60 -2 -8 -8 -16 -14 -18 -5 -2
-8 -9 -5 -16 3 -8 -1 -20 -8 -27 -7 -8 -14 -21 -16 -29 -2 -8 -7 -17 -11 -20
-4 -3 -6 -12 -6 -20 0 -8 -6 -21 -15 -28 -13 -12 -13 -12 0 -6 13 7 13 6 0
-11 -8 -10 -15 -21 -15 -24 0 -3 -4 -5 -8 -3 -5 1 -6 -2 -3 -6 3 -5 -9 -38
-26 -73 -17 -35 -31 -67 -30 -71 1 -5 -3 -8 -10 -8 -6 0 -8 -3 -5 -7 4 -3 -3
-18 -15 -31 -13 -14 -17 -21 -9 -17 18 11 -31 -58 -78 -107 -19 -21 -40 -38
-46 -38 -6 0 -17 -9 -25 -20 -8 -12 -24 -27 -35 -34 -18 -12 -20 -11 -20 10 0
13 3 24 8 24 4 0 7 5 7 11 0 5 -6 7 -12 3 -9 -6 -9 -3 0 9 8 9 11 21 7 27 -3
5 -1 10 6 10 8 0 7 5 -2 17 -9 11 -10 14 -2 9 9 -5 13 0 12 16 0 13 2 34 6 48
5 19 4 21 -4 10 -8 -12 -10 -9 -7 13 1 15 6 30 11 35 4 4 5 0 0 -8 -5 -8 -4
-12 0 -7 13 11 13 67 1 60 -6 -3 -6 0 1 7 9 10 9 18 1 34 -10 18 -9 19 4 8 14
-11 15 -9 8 22 -4 20 -4 34 0 31 16 -10 16 30 1 48 -12 15 -12 17 0 12 10 -4
14 3 14 22 1 16 -3 31 -8 34 -5 3 -1 13 7 22 18 17 21 32 6 22 -5 -3 -10 -1
-10 4 0 6 5 11 11 11 5 0 7 5 4 10 -4 6 -1 18 6 26 10 13 10 17 -2 25 -12 7
-12 9 1 9 13 0 13 1 0 10 -11 7 -11 10 -2 10 7 0 11 4 7 9 -3 5 -1 12 5 16 6
4 8 10 5 15 -3 5 -1 11 4 15 14 8 2 36 -13 29 -6 -3 -2 2 8 10 13 10 15 16 7
16 -11 0 -11 3 0 17 12 15 12 16 -1 8 -12 -6 -13 -5 -2 6 6 7 12 17 12 22 0 4
-6 5 -12 2 -7 -4 -6 0 4 7 12 11 14 18 6 32 -7 13 -7 17 0 12 5 -3 13 1 16 10
5 12 2 15 -11 10 -13 -5 -11 0 7 19 14 15 18 24 9 20 -10 -4 -16 0 -16 9 0 8
6 12 14 9 7 -3 13 0 13 5 0 6 -8 13 -17 15 -15 4 -15 5 2 6 17 1 18 3 5 11
-12 8 -12 10 -1 10 11 0 11 3 1 16 -11 12 -11 15 0 12 7 -2 15 3 18 11 3 9 0
11 -8 6 -10 -6 -11 -4 -4 6 10 17 15 38 15 62 0 9 5 15 10 11 12 -7 7 19 -6
28 -6 5 -5 8 4 8 7 0 11 6 7 15 -3 8 -1 15 5 15 6 0 7 5 4 10 -3 6 0 10 7 10
9 0 9 3 -2 10 -13 8 -13 10 0 10 10 0 11 3 3 11 -9 9 -8 15 3 26 12 12 12 18
3 30 -7 8 -8 13 -3 12 21 -4 26 2 14 16 -10 13 -9 19 5 35 10 11 15 23 12 27
-4 3 -1 13 6 21 10 13 9 14 -3 7 -13 -8 -13 -7 0 10 8 10 14 20 13 22 -2 1 -3
12 -3 24 0 13 4 18 13 13 9 -6 9 -5 0 7 -7 9 -9 20 -3 29 6 9 4 20 -3 29 -9
12 -9 13 1 7 6 -4 12 -3 12 1 0 5 -6 15 -12 22 -8 9 -8 11 -2 8 7 -4 14 0 17
7 3 8 1 17 -6 20 -9 3 -9 5 0 5 7 1 10 8 7 16 -4 8 -1 15 5 15 6 0 11 5 11 10
0 6 -8 10 -17 10 -15 0 -14 2 3 15 18 13 18 14 -5 8 -16 -4 -22 -3 -17 5 8 13
-3 20 -26 15z m657 -223 c-3 -5 -12 -10 -18 -10 -7 0 -6 4 3 10 19 12 23 12
15 0z m-60 -59 c3 -5 2 -12 -3 -15 -5 -3 -9 1 -9 9 0 17 3 19 12 6z m3395
-572 c28 -12 50 -25 50 -30 0 -5 5 -9 11 -9 10 0 88 -75 90 -88 18 -92 17
-116 -7 -167 -23 -51 -41 -71 -104 -115 -19 -13 -38 -29 -42 -35 -4 -5 -8 -6
-8 -1 0 5 -9 1 -19 -8 -11 -10 -25 -19 -33 -20 -7 -1 -35 -13 -63 -26 -27 -14
-57 -25 -66 -26 -9 -1 -21 -4 -28 -8 -6 -4 -24 -10 -39 -13 -41 -8 -57 -11
-57 -13 0 -3 -62 -12 -92 -14 -18 0 -33 -4 -33 -7 0 -4 -16 -6 -35 -5 -27 1
-34 -2 -30 -13 4 -10 2 -11 -8 -3 -8 7 -26 8 -52 2 -24 -5 -44 -5 -51 0 -6 6
-13 9 -15 7 -2 -1 1 3 7 8 5 6 10 22 9 38 -1 15 2 27 7 27 4 0 8 6 8 14 0 42
71 215 93 224 4 2 7 8 7 14 0 5 6 15 13 23 6 7 23 27 37 45 14 18 38 46 54 61
16 16 26 29 22 29 -4 0 7 12 26 28 18 15 35 30 36 35 2 4 8 5 13 1 5 -3 9 -1
9 5 0 11 69 49 110 61 42 12 127 2 180 -21z m-4100 -133 c0 -3 -4 -8 -10 -11
-5 -3 -10 -1 -10 4 0 6 5 11 10 11 6 0 10 -2 10 -4z m-45 -306 c-3 -5 -12 -10
-18 -10 -7 0 -6 4 3 10 19 12 23 12 15 0z m3055 -534 c0 -3 -4 -8 -10 -11 -5
-3 -10 -1 -10 4 0 6 5 11 10 11 6 0 10 -2 10 -4z m-290 -726 c-12 -8 -12 -10
-1 -10 8 0 12 -3 8 -6 -9 -9 -28 6 -22 17 4 5 12 9 18 9 7 0 6 -4 -3 -10z
m-320 -62 c0 -6 -6 -5 -15 2 -8 7 -15 14 -15 16 0 2 7 1 15 -2 8 -4 15 -11 15
-16z m-73 -102 c0 -8 -6 -12 -15 -9 -11 5 -11 7 0 14 7 5 13 9 14 9 0 0 1 -6
1 -14z"/>
<path d="M1557 4659 c7 -7 15 -10 18 -7 3 3 -2 9 -12 12 -14 6 -15 5 -6 -5z"/>
<path d="M5165 4180 c3 -5 8 -10 11 -10 2 0 4 5 4 10 0 6 -5 10 -11 10 -5 0
-7 -4 -4 -10z"/>
<path d="M3230 2929 c0 -5 5 -7 10 -4 6 3 10 8 10 11 0 2 -4 4 -10 4 -5 0 -10
-5 -10 -11z"/>
<path d="M4150 2680 c0 -5 5 -10 11 -10 5 0 7 5 4 10 -3 6 -8 10 -11 10 -2 0
-4 -4 -4 -10z"/>
<path d="M1987 2549 c7 -7 15 -10 18 -7 3 3 -2 9 -12 12 -14 6 -15 5 -6 -5z"/>
<path d="M4318 2043 c7 -3 16 -2 19 1 4 3 -2 6 -13 5 -11 0 -14 -3 -6 -6z"/>
<path d="M4226 1878 c3 -5 10 -6 15 -3 13 9 11 12 -6 12 -8 0 -12 -4 -9 -9z"/>
<path d="M4196 1834 c-4 -9 -4 -19 -1 -22 3 -3 5 0 5 7 0 7 4 9 10 6 6 -3 7 1
4 9 -8 20 -10 20 -18 0z"/>
<path d="M370 1691 c0 -6 4 -13 10 -16 6 -3 7 1 4 9 -7 18 -14 21 -14 7z"/>
<path d="M405 1680 c-3 -6 1 -7 9 -4 18 7 21 14 7 14 -6 0 -13 -4 -16 -10z"/>
</g>
</svg>
